<svg xmlns="http://www.w3.org/2000/svg" version="1.1" xmlns:xlink="http://www.w3.org/1999/xlink" xmlns:svgjs="http://svgjs.dev/svgjs" width="1500" height="1500" viewBox="0 0 1500 1500"><rect width="1500" height="1500" fill="#000000"></rect><g transform="matrix(0.6666666666666666,0,0,0.6666666666666666,249.78425655976667,249.78425655976673)"><svg viewBox="0 0 343 343" data-background-color="#4a5d5e" preserveAspectRatio="xMidYMid meet" height="1500" width="1500" xmlns="http://www.w3.org/2000/svg" xmlns:xlink="http://www.w3.org/1999/xlink"><g id="tight-bounds" transform="matrix(1,0,0,1,0.0740000000000407,0.07400000000001228)"><svg viewBox="0 0 342.85155851775386 342.85155851775386" height="342.85155851775386" width="342.85155851775386"><g><svg></svg></g><g><svg viewBox="0 0 342.85155851775386 342.85155851775386" height="342.85155851775386" width="342.85155851775386"><g><path d="M0 171.426c0-94.676 76.75-171.426 171.426-171.426 94.676 0 171.426 76.75 171.426 171.426 0 94.676-76.75 171.426-171.426 171.426-94.676 0-171.426-76.75-171.426-171.426zM171.426 340.179c93.2 0 168.753-75.553 168.753-168.753 0-93.2-75.553-168.753-168.753-168.753-93.2 0-168.753 75.553-168.753 168.753 0 93.2 75.553 168.753 168.753 168.753z" data-fill-palette-color="tertiary" fill="#ffffff" stroke="transparent"></path><ellipse rx="164.56874808852186" ry="164.56874808852186" cx="171.42577925887693" cy="171.42577925887693" fill="#ffffff" stroke="transparent" stroke-width="0" fill-opacity="1" data-fill-palette-color="tertiary"></ellipse></g><g transform="matrix(1,0,0,1,64.84655864529837,102.48516936233634)"><svg viewBox="0 0 213.1584412271571 137.8812197930812" height="137.8812197930812" width="213.1584412271571"><g><svg viewBox="0 0 213.1584412271571 137.8812197930812" height="137.8812197930812" width="213.1584412271571"><g><svg viewBox="0 0 213.1584412271571 137.8812197930812" height="137.8812197930812" width="213.1584412271571"><g transform="matrix(1,0,0,1,0,82.93375436100395)"><svg viewBox="0 0 213.1584412271571 54.947465432077244" height="54.947465432077244" width="213.1584412271571"><g id="textblocktransform"><svg viewBox="0 0 213.1584412271571 54.947465432077244" height="54.947465432077244" width="213.1584412271571" id="textblock"><g><svg viewBox="0 0 213.1584412271571 29.636037267122408" height="29.636037267122408" width="213.1584412271571"><g transform="matrix(1,0,0,1,0,0)"><svg width="213.1584412271571" viewBox="5.65 -38.25 280.48913598632817 39" height="29.636037267122408" data-palette-color="#4a5d5e"><g transform="matrix(1,0,0,1,0,0)"><g><svg width="10.472757324218751" viewBox="3.16 -36.36 44.44 36.36" height="8.569" data-palette-color="#4a5d5e" id="scriptelement" x="275.66637866210937" y="-8.569"><path d="M3.16-36.36L10.85-36.36 10.85 0 3.16 0 3.16-36.36ZM39.95-36.36L47.6-36.36 47.6 0 40.96 0 25.14-22.89 24.87-22.89 24.87 0 17.19 0 17.19-36.36 23.93-36.36 39.63-13.49 39.95-13.49 39.95-36.36Z" opacity="1" transform="matrix(1,0,0,1,0,0)" fill="#000000" class="undefined-123" data-fill-palette-color="quaternary" id="tk-123"></path></svg></g></g><path d="M10.4-16.85L10.4-16.85 10.65-2.35Q10.65-1.15 9.9-0.33 9.15 0.5 8.13 0.5 7.1 0.5 6.38-0.33 5.65-1.15 5.65-2.35L5.65-2.35Q5.65-2.35 5.85-18.6L5.85-18.6 5.65-35.1Q5.65-36.3 6.38-37.13 7.1-37.95 8.13-37.95 9.15-37.95 9.9-37.13 10.65-36.3 10.65-35.1L10.65-35.1 10.5-30.6Q10.4-26.1 10.4-21.7L10.4-21.7Q11.75-22.1 13.85-22.1L13.85-22.1 16.65-21.8Q19-23.55 21.43-27.83 23.85-32.1 24.65-35.7L24.65-35.7Q25.2-38 27.05-38L27.05-38Q27.9-38 28.53-37.35 29.15-36.7 29.15-35.75L29.15-35.75Q29.15-32.65 26.38-27.6 23.6-22.55 20.4-19.3L20.4-19.3Q25.5-10.1 28.75-5.95L28.75-5.95Q30.5-3.75 32.05-3.75L32.05-3.75 32.6-3.8Q32.95-3.8 32.95-2.7 32.95-1.6 32.05-0.55 31.15 0.5 29.75 0.5 28.35 0.5 27-0.7L27-0.7Q24.25-3.05 16.2-17.05L16.2-17.05 13-16.7Q11.2-16.7 10.4-16.85ZM53.1-33.05L53.1-33.05 49-33.25Q48.8-28.4 48.8-19.33 48.8-10.25 49.05-4.15L49.05-4.15 53.1-4.35Q54.45-4.35 55.27-3.73 56.1-3.1 56.1-2.02 56.1-0.95 55.27-0.33 54.45 0.3 53.1 0.3L53.1 0.3 46.55 0 40 0.3Q38.65 0.3 37.82-0.33 37-0.95 37-2.02 37-3.1 37.82-3.73 38.65-4.35 40-4.35L40-4.35 44.05-4.1Q44.3-10.2 44.3-19.3 44.3-28.4 44.1-33.25L44.1-33.25 40-33.05Q38.65-33.05 37.82-33.7 37-34.35 37-35.45 37-36.55 37.82-37.18 38.65-37.8 40-37.8L40-37.8 46.55-37.5 53.1-37.8Q54.45-37.8 55.27-37.18 56.1-36.55 56.1-35.45 56.1-34.35 55.27-33.7 54.45-33.05 53.1-33.05ZM63.8-37.8L63.8-37.8 73.75-37.5 83.4-37.8Q84.75-37.8 85.57-37.18 86.4-36.55 86.4-35.45 86.4-34.35 85.57-33.73 84.75-33.1 83.4-33.1L83.4-33.1 76.2-33.4Q76-28.55 76-18.6L76-18.6 76.3-2.4Q76.3-1.1 75.6-0.3 74.9 0.5 73.77 0.5 72.65 0.5 71.92-0.3 71.2-1.1 71.2-2.4L71.2-2.4 71.5-18.6Q71.5-27.3 71.25-33.4L71.25-33.4 63.8-33.1Q62.45-33.1 61.62-33.73 60.8-34.35 60.8-35.45 60.8-36.55 61.62-37.18 62.45-37.8 63.8-37.8ZM119.74-18.35L119.74-18.35Q119.74-12.75 120.47-8.88 121.19-5 122.24-4.5L122.24-4.5Q122.64-4.3 123.19-4.23 123.74-4.15 123.99-4 124.24-3.85 124.24-3.45L124.24-3.45Q124.24-1.65 123.24-0.5 122.24 0.65 120.59 0.65L120.59 0.65Q118.39 0.65 117.29-1.85 116.19-4.35 116.19-8.25L116.19-8.25Q113.54-4.05 110.62-1.65 107.69 0.75 104.07 0.75 100.44 0.75 97.94-0.98 95.44-2.7 93.94-5.5L93.94-5.5Q90.94-11.25 90.94-18.15L90.94-18.15Q90.94-26.35 95.19-32.3 99.44-38.25 106.19-38.25L106.19-38.25Q108.79-38.25 111.27-37.27 113.74-36.3 115.39-34.8L115.39-34.8Q115.39-38.25 117.94-38.25L117.94-38.25Q121.09-38.25 121.09-33.2L121.09-33.2Q121.09-29.45 119.74-18.35ZM115.79-17.75L115.79-17.75 115.49-30Q111.24-33.9 106.19-33.9L106.19-33.9Q102.04-33.9 98.89-29.43 95.74-24.95 95.74-18.55 95.74-12.15 97.92-7.88 100.09-3.6 103.82-3.6 107.54-3.6 111.32-8.35 115.09-13.1 115.79-17.75ZM153.44-37.75L159.89-37.5 167.34-37.8Q168.69-37.8 169.51-37.18 170.34-36.55 170.34-35.48 170.34-34.4 169.39-33.75 168.44-33.1 166.94-33.1L166.94-33.1Q166.89-30 166.89-12.85L166.89-12.85Q166.89-9.2 165.86-6.45 164.84-3.7 163.14-2.2L163.14-2.2Q159.79 0.75 155.51 0.75 151.24 0.75 148.51-0.98 145.79-2.7 145.79-4.35L145.79-4.35Q145.79-5.3 146.34-5.88 146.89-6.45 147.79-6.45 148.69-6.45 149.59-5.75 150.49-5.05 151.89-4.33 153.29-3.6 155.34-3.6L155.34-3.6Q158.24-3.6 160.31-6.08 162.39-8.55 162.39-13.9L162.39-13.9 162.24-33.35Q159.09-33.35 156.54-33.2 153.99-33.05 153.04-33.05 152.09-33.05 151.26-33.68 150.44-34.3 150.44-35.4 150.44-36.5 151.26-37.13 152.09-37.75 153.44-37.75L153.44-37.75ZM193.76-3.6Q198.99-3.6 202.46-8.2 205.94-12.8 205.94-18.85 205.94-24.9 202.49-29.43 199.04-33.95 193.76-33.95 188.49-33.95 185.01-29.43 181.54-24.9 181.54-18.88 181.54-12.85 185.04-8.22 188.54-3.6 193.76-3.6ZM205.91-32.6Q210.74-26.95 210.74-18.8 210.74-10.65 205.86-4.95 200.99 0.75 193.71 0.75 186.44 0.75 181.59-4.95 176.74-10.65 176.74-18.8 176.74-26.95 181.64-32.6 186.54-38.25 193.81-38.25 201.09-38.25 205.91-32.6ZM224.73-16.85L224.73-16.85 224.98-2.35Q224.98-1.15 224.23-0.33 223.48 0.5 222.46 0.5 221.43 0.5 220.71-0.33 219.98-1.15 219.98-2.35L219.98-2.35Q219.98-2.35 220.18-18.6L220.18-18.6 219.98-35.1Q219.98-36.3 220.71-37.13 221.43-37.95 222.46-37.95 223.48-37.95 224.23-37.13 224.98-36.3 224.98-35.1L224.98-35.1 224.83-30.6Q224.73-26.1 224.73-21.7L224.73-21.7Q226.08-22.1 228.18-22.1L228.18-22.1 230.98-21.8Q233.33-23.55 235.76-27.83 238.18-32.1 238.98-35.7L238.98-35.7Q239.53-38 241.38-38L241.38-38Q242.23-38 242.86-37.35 243.48-36.7 243.48-35.75L243.48-35.75Q243.48-32.65 240.71-27.6 237.93-22.55 234.73-19.3L234.73-19.3Q239.83-10.1 243.08-5.95L243.08-5.95Q244.83-3.75 246.38-3.75L246.38-3.75 246.93-3.8Q247.28-3.8 247.28-2.7 247.28-1.6 246.38-0.55 245.48 0.5 244.08 0.5 242.68 0.5 241.33-0.7L241.33-0.7Q238.58-3.05 230.53-17.05L230.53-17.05 227.33-16.7Q225.53-16.7 224.73-16.85ZM267.43-33.05L267.43-33.05 263.33-33.25Q263.13-28.4 263.13-19.33 263.13-10.25 263.38-4.15L263.38-4.15 267.43-4.35Q268.78-4.35 269.61-3.73 270.43-3.1 270.43-2.02 270.43-0.95 269.61-0.33 268.78 0.3 267.43 0.3L267.43 0.3 260.88 0 254.33 0.3Q252.98 0.3 252.16-0.33 251.33-0.95 251.33-2.02 251.33-3.1 252.16-3.73 252.98-4.35 254.33-4.35L254.33-4.35 258.38-4.1Q258.63-10.2 258.63-19.3 258.63-28.4 258.43-33.25L258.43-33.25 254.33-33.05Q252.98-33.05 252.16-33.7 251.33-34.35 251.33-35.45 251.33-36.55 252.16-37.18 252.98-37.8 254.33-37.8L254.33-37.8 260.88-37.5 267.43-37.8Q268.78-37.8 269.61-37.18 270.43-36.55 270.43-35.45 270.43-34.35 269.61-33.7 268.78-33.05 267.43-33.05Z" opacity="1" transform="matrix(1,0,0,1,0,0)" fill="#000000" class="wordmark-text-0" data-fill-palette-color="quaternary" id="text-0"></path></svg></g></svg></g><g transform="matrix(1,0,0,1,0,36.632394400995594)"><svg viewBox="0 0 201.2210940598465 18.315071031081647" height="18.315071031081647" width="201.2210940598465"><g transform="matrix(1,0,0,1,0,0)"><svg width="201.2210940598465" viewBox="-4.64 -37.84 549.87 50.050000000000004" height="18.315071031081647" data-palette-color="#4a5d5e"><path d="M10.01-28.2L10.01-5Q10.01-1.39 9.38 0.89 8.74 3.17 7.74 4.46 6.74 5.74 5.15 7.03L5.15 7.03Q3.93 8.01 2.2 8.64 0.46 9.28-0.61 9.28L-0.61 9.28Q-1.54 9.28-2.47 8.92-3.39 8.57-4.02 8.09-4.64 7.62-4.64 7.32L-4.64 7.32Q-4.64 6.93-3.58 6.04-2.51 5.15-1.81 4.88L-1.81 4.88Q-0.51 5.74 0.27 6.01 1.05 6.27 2.05 6.27L2.05 6.27Q3.03 6.27 3.94 5.42 4.86 4.57 5.48 2.44 6.1 0.32 6.1-3.25L6.1-3.25 6.1-28.2Q6.1-29.03 1.34-29.71L1.34-29.71 1.34-30.76 13.55-30.76 13.55-29.71Q11.91-29.37 10.96-28.96 10.01-28.54 10.01-28.2L10.01-28.2ZM66.97 0.73Q63.94 0.73 61.63-0.77 59.33-2.27 58.07-4.9 56.81-7.52 56.81-10.84L56.81-10.84Q56.81-14.04 58.32-16.96 59.84-19.87 62.39-21.66 64.94-23.44 67.92-23.44L67.92-23.44Q70.92-23.44 73.23-21.94 75.54-20.43 76.79-17.8 78.05-15.16 78.05-11.84L78.05-11.84Q78.05-8.64 76.51-5.74 74.97-2.83 72.42-1.05 69.87 0.73 66.97 0.73L66.97 0.73ZM67.21-20.75Q63.7-20.75 62.14-18.27 60.59-15.8 60.59-11.55L60.59-11.55Q60.59-9.08 61.71-6.87 62.82-4.66 64.48-3.31 66.14-1.95 67.65-1.95L67.65-1.95Q71-1.95 72.63-4.37 74.27-6.79 74.27-11.11L74.27-11.11Q74.27-13.6 73.22-15.83 72.17-18.07 70.52-19.41 68.87-20.75 67.21-20.75L67.21-20.75ZM120.95 0L120.95-1.05Q122.85-1.54 123.61-1.84 124.36-2.15 124.36-2.54L124.36-2.54 124.36-31.64Q124.36-33.15 124.09-33.76 123.83-34.38 123.24-34.55 122.65-34.72 120.95-34.91L120.95-34.91 120.95-35.89Q123.02-36.33 124.52-36.77 126.02-37.21 127.12-37.84L127.12-37.84 128.03-37.01 128.03-12.94 135.54-19.51Q136.62-20.48 136.62-20.97L136.62-20.97Q136.62-21.36 136.05-21.51 135.47-21.66 134.49-21.66L134.49-21.66 134.49-22.71 143.75-22.71 143.75-21.66Q142.55-21.53 141.67-21.22 140.79-20.9 139.84-20.14L139.84-20.14 131.52-13.48 140.7-2.71Q141.28-2.05 141.95-1.76 142.62-1.46 143.65-1.46L143.65-1.46Q144.16-1.46 144.46-1.49L144.46-1.49 144.6-0.44Q143.26-0.12 141.97 0.06 140.67 0.24 140.11 0.24L140.11 0.24Q139.08 0.24 138.46-0.05 137.84-0.34 137.3-1.05L137.3-1.05 128.03-12.74 128.03-2.54Q128.03-2.27 128.2-2.09 128.37-1.9 128.94-1.66 129.51-1.42 130.71-1.05L130.71-1.05 130.71 0 120.95 0ZM190.89-27.44Q188.84-27.44 188.84-29.79L188.84-29.79Q188.84-30.69 189.22-31.46 189.6-32.23 190.24-32.67 190.89-33.11 191.65-33.11L191.65-33.11Q193.72-33.11 193.72-30.79L193.72-30.79Q193.72-29.39 192.9-28.42 192.09-27.44 190.89-27.44L190.89-27.44ZM185.91 0L185.91-1.05Q187.5-1.37 188.41-1.78 189.33-2.2 189.33-2.54L189.33-2.54 189.33-16.36Q189.33-18.29 189.18-18.99 189.03-19.7 188.35-20.02 187.67-20.34 185.91-20.51L185.91-20.51 185.91-21.48Q187.5-21.78 189.23-22.31 190.96-22.85 192.16-23.44L192.16-23.44 192.99-23.44 192.99-2.54Q192.99-2.2 193.88-1.78 194.77-1.37 196.41-1.05L196.41-1.05 196.41 0 185.91 0ZM244.04-27.44Q241.99-27.44 241.99-29.79L241.99-29.79Q241.99-30.69 242.37-31.46 242.74-32.23 243.39-32.67 244.04-33.11 244.8-33.11L244.8-33.11Q246.87-33.11 246.87-30.79L246.87-30.79Q246.87-29.39 246.05-28.42 245.24-27.44 244.04-27.44L244.04-27.44ZM239.06 0L239.06-1.05Q240.65-1.37 241.56-1.78 242.48-2.2 242.48-2.54L242.48-2.54 242.48-16.36Q242.48-18.29 242.33-18.99 242.18-19.7 241.5-20.02 240.82-20.34 239.06-20.51L239.06-20.51 239.06-21.48Q240.65-21.78 242.38-22.31 244.11-22.85 245.31-23.44L245.31-23.44 246.14-23.44 246.14-2.54Q246.14-2.2 247.03-1.78 247.92-1.37 249.56-1.05L249.56-1.05 249.56 0 239.06 0ZM306.86 0L306.86-1.05Q308.64-1.51 309.46-1.87 310.27-2.22 310.27-2.54L310.27-2.54 310.27-15.45Q310.27-17.43 309.97-18.46 309.66-19.48 309-19.87 308.34-20.26 307.15-20.26L307.15-20.26Q305.46-20.26 303.29-18.59 301.12-16.92 298.92-13.4L298.92-13.4 298.92-2.54Q298.92-2.17 299.84-1.78 300.75-1.39 302.34-1.05L302.34-1.05 302.34 0 291.84 0 291.84-1.05Q293.67-1.54 294.46-1.86 295.26-2.17 295.26-2.54L295.26-2.54 295.26-17.36Q295.26-18.75 295.08-19.29 294.89-19.82 294.23-20.07 293.57-20.31 291.84-20.51L291.84-20.51 291.84-21.48Q294.67-21.92 297.7-23.44L297.7-23.44 298.55-22.58 298.82-16.5Q300.19-18.58 301.97-20.17 303.75-21.75 305.5-22.6 307.25-23.44 308.54-23.44L308.54-23.44Q310-23.44 311.23-22.85 312.45-22.27 313.19-21.06 313.94-19.85 313.94-18.09L313.94-18.09 313.94-2.54Q313.94-2.2 314.69-1.87 315.45-1.54 317.35-1.05L317.35-1.05 317.35 0 306.86 0ZM424.68 0.73Q423.87 0.73 423.33-0.42 422.8-1.56 422.75-3.49L422.75-3.49Q420.67-1.39 418.52-0.33 416.37 0.73 414.69 0.73L414.69 0.73Q413.42 0.73 412.24 0.17 411.05-0.39 410.27-1.57 409.49-2.76 409.49-4.54L409.49-4.54Q409.49-6.27 410.08-7.52 410.66-8.76 411.69-9.79L411.69-9.79Q412.59-10.69 413.73-11.34 414.86-11.99 417.02-12.59 419.18-13.18 422.75-13.7L422.75-13.7 422.75-17.14Q422.75-18.92 421.87-19.96 420.99-21 418.89-21L418.89-21Q417.79-21 416.78-20.58 415.76-20.17 415.17-19.41 414.57-18.65 414.67-17.68L414.67-17.68Q414.69-17.41 413.98-17.08 413.27-16.75 412.31-16.5 411.35-16.26 410.78-16.26L410.78-16.26Q410.59-16.26 410.52-16.28L410.52-16.28 410.17-17.24Q410.91-18.82 412.65-20.26 414.4-21.7 416.59-22.57 418.79-23.44 420.82-23.44L420.82-23.44Q423.48-23.44 424.94-22.03 426.41-20.63 426.41-18.12L426.41-18.12 426.41-4.35Q426.41-2.44 427.39-2.44L427.39-2.44Q428.19-2.44 429.78-3.1L429.78-3.1 430.14-2Q428.14-0.61 426.76 0.06 425.38 0.73 424.68 0.73L424.68 0.73ZM422.75-5.54L422.75-11.87Q420.13-11.45 418.61-11.02 417.08-10.6 416.29-10.14 415.5-9.69 414.91-9.08L414.91-9.08Q413.49-7.59 413.49-5.59L413.49-5.59Q413.49-4.39 413.95-3.7 414.4-3 415-2.72 415.59-2.44 416.13-2.44L416.13-2.44Q419.16-2.44 422.75-5.54L422.75-5.54ZM476.68-27.44Q474.6-27.44 474.6-29.79L474.6-29.79Q474.6-30.69 474.98-31.46 475.36-32.23 475.99-32.67 476.63-33.11 477.41-33.11L477.41-33.11Q479.48-33.11 479.48-30.79L479.48-30.79Q479.48-29.39 478.67-28.42 477.85-27.44 476.68-27.44L476.68-27.44ZM474.11 9.77Q472.82 10.79 471.27 11.5 469.72 12.21 468.77 12.21L468.77 12.21Q467.84 12.21 466.89 11.91 465.93 11.62 465.32 11.21 464.71 10.79 464.71 10.52L464.71 10.52Q464.71 10.13 465.87 9.16 467.03 8.18 467.81 7.81L467.81 7.81Q468.55 8.45 469.35 8.68 470.16 8.91 471.18 8.91L471.18 8.91Q472.84 8.91 473.97 6.63 475.09 4.35 475.09-1.05L475.09-1.05 475.09-16.36Q475.09-18.26 474.93-18.97 474.77-19.68 474.1-20 473.43-20.31 471.67-20.51L471.67-20.51 471.67-21.48Q473.5-21.8 474.7-22.22 475.89-22.63 477.85-23.44L477.85-23.44 478.75-23.44 478.75-2.42Q478.75 1.15 478.17 3.47 477.58 5.79 476.6 7.18 475.63 8.57 474.11 9.77L474.11 9.77ZM539.76 0.73Q538.96 0.73 538.42-0.42 537.88-1.56 537.83-3.49L537.83-3.49Q535.76-1.39 533.61-0.33 531.46 0.73 529.78 0.73L529.78 0.73Q528.51 0.73 527.32 0.17 526.14-0.39 525.36-1.57 524.58-2.76 524.58-4.54L524.58-4.54Q524.58-6.27 525.16-7.52 525.75-8.76 526.77-9.79L526.77-9.79Q527.68-10.69 528.81-11.34 529.95-11.99 532.11-12.59 534.27-13.18 537.83-13.7L537.83-13.7 537.83-17.14Q537.83-18.92 536.95-19.96 536.07-21 533.97-21L533.97-21Q532.88-21 531.86-20.58 530.85-20.17 530.25-19.41 529.65-18.65 529.75-17.68L529.75-17.68Q529.78-17.41 529.07-17.08 528.36-16.75 527.4-16.5 526.43-16.26 525.87-16.26L525.87-16.26Q525.67-16.26 525.6-16.28L525.6-16.28 525.26-17.24Q525.99-18.82 527.74-20.26 529.48-21.7 531.68-22.57 533.88-23.44 535.9-23.44L535.9-23.44Q538.56-23.44 540.03-22.03 541.49-20.63 541.49-18.12L541.49-18.12 541.49-4.35Q541.49-2.44 542.47-2.44L542.47-2.44Q543.28-2.44 544.86-3.1L544.86-3.1 545.23-2Q543.23-0.61 541.85 0.06 540.47 0.73 539.76 0.73L539.76 0.73ZM537.83-5.54L537.83-11.87Q535.22-11.45 533.69-11.02 532.17-10.6 531.37-10.14 530.58-9.69 530-9.08L530-9.08Q528.58-7.59 528.58-5.59L528.58-5.59Q528.58-4.39 529.03-3.7 529.48-3 530.08-2.72 530.68-2.44 531.22-2.44L531.22-2.44Q534.24-2.44 537.83-5.54L537.83-5.54Z" opacity="1" transform="matrix(1,0,0,1,0,0)" fill="#000000" class="slogan-text-1" data-fill-palette-color="quaternary" id="text-1"></path></svg></g></svg></g></svg></g></svg></g><g transform="matrix(1,0,0,1,74.4404047581033,0)"><svg viewBox="0 0 64.27763171095052 75.93739722713076" height="75.93739722713076" width="64.27763171095052"><g><svg xmlns="http://www.w3.org/2000/svg" xmlns:xlink="http://www.w3.org/1999/xlink" version="1.1" x="0" y="0" viewBox="11.909 4.99999993505514 76.181 90.00000006494486" enable-background="new 0 0 100 100" xml:space="preserve" height="75.93739722713076" width="64.27763171095052" class="icon-icon-0" data-fill-palette-color="quaternary" id="icon-0"><g fill="#4a5d5e" data-fill-palette-color="quaternary"><path d="M85.061 42.601V46.225H57.433V42.601zM57.433 30.602V34.225H85.061V30.602zM57.433 18.6V22.224H85.061V18.6zM53.357 48.601V52.223H80.984V48.601zM53.357 36.601V40.225H80.984V36.601zM53.357 24.6V28.224H80.984V24.6zM32.455 20.422A7.71 7.71 0 0 0 40.165 12.71C40.165 8.452 36.715 5 32.455 5A7.71 7.71 0 0 0 24.744 12.71 7.71 7.71 0 0 0 32.455 20.422M49.876 31.487C49.897 31.387 50.426 28.551 48.796 26.595 47.824 25.428 46.343 24.848 44.39 24.87L32.455 24.927 20.522 24.87C18.57 24.848 17.089 25.429 16.117 26.595 15.142 27.764 14.939 29.249 14.939 30.278 14.939 30.972 15.031 31.459 15.04 31.507 15.04 31.508 17.874 47.958 18.611 52.224H46.303zM11.909 95H88.09V55.203H11.909z" fill="#000000" data-fill-palette-color="quaternary"></path></g></svg></g></svg></g><g></g></svg></g></svg></g></svg></g></svg></g><defs></defs></svg><rect width="342.85155851775386" height="342.85155851775386" fill="none" stroke="none" visibility="hidden"></rect></g></svg></g></svg>